<svg xmlns="http://www.w3.org/2000/svg" viewBox="0 0 512 512" role="img" aria-label="Favorite Vault">
  <rect width="512" height="512" rx="112" fill="#111827"/>
  <path d="M256 376c-16-16-45-40-74-65-56-48-93-80-93-128 0-42 31-75 72-75 27 0 52 14 67 37 15-23 40-37 67-37 41 0 72 33 72 75 0 48-37 80-93 128-29 25-58 49-74 65Z" fill="#f9fafb"/>
  <path d="M326 352h77c13 0 23 10 23 23s-10 23-23 23h-77c-13 0-23-10-23-23s10-23 23-23Zm0 66h45c13 0 23 10 23 23s-10 23-23 23h-45c-13 0-23-10-23-23s10-23 23-23Z" fill="#f9fafb" opacity=".86"/>
</svg>
